# xmcd CD database file
#
# Track frame offsets:
#	150
#	11131
#	23076
#	41260
#	56338
#	70531
#	83656
#	96385
#	110852
#	125035
#	137193
#	153281
#	166148
#
# Disc length: 2438 seconds
#
# Revision: 0
# Processed by: cddbd v1.5.2PL0 Copyright (c) Steve Scherf et al.
# Submitted via: Feurio! 1.68 - http://www.feurio.com
#
DISCID=a409840d
DTITLE=Grascals - Life Finds a Way
DYEAR=1900
DGENRE=Country
TTITLE0=Life Finds a Way
TTITLE1=Hello Mr. Lonesome
TTITLE2=Still They Call Me Love
TTITLE3=Mystery Train
TTITLE4=Pretty Melody
TTITLE5=Pass It On
TTITLE6=Bartender
TTITLE7=Lay That Hammer Down
TTITLE8=Sweet Baby James
TTITLE9=You can Mark it Down
TTITLE10=Honky Tonk Lullaby
TTITLE11=Eleven Eleven
TTITLE12=Road to Surrender
EXTD=2012 release
EXTT0=
EXTT1=
EXTT2=
EXTT3=
EXTT4=
EXTT5=
EXTT6=
EXTT7=
EXTT8=
EXTT9=
EXTT10=
EXTT11=
EXTT12=
PLAYORDER=
